<svg enable-background="new 0 0 630 630" viewBox="0 0 630 630" xmlns="http://www.w3.org/2000/svg"><path d="m0 0h630v630h-630z" fill="#fff"/><path d="m0 3150v-3150h3150 3150v3150 3150h-3150-3150zm5077 251c160-40 282-111 394-227 58-62 144-175 151-202 2-8-272-192-438-295-6-4-30 22-57 62-81 118-166 169-296 178-191 13-314-87-313-254 0-49 7-78 27-118 42-87 120-139 365-245 451-194 644-322 764-504 134-203 164-527 73-768-100-262-348-440-697-499-108-19-364-16-480 5-253 45-493 170-641 334-58 64-171 231-164 243 3 4 29 20 58 37 28 16 134 77 234 135l181 105 38-56c53-81 169-192 239-229 201-106 477-91 613 31 58 53 82 108 82 189 0 73-9 105-47 160-49 70-149 129-433 252-325 140-465 227-593 365-74 80-144 208-173 315-24 89-30 312-11 402 67 314 304 533 646 598 111 21 369 13 478-14zm-1479-263 2-258h-410-410v-1165-1165h-290-290v1165 1165h-410-410v253c0 140 3 257 7 260 3 4 502 6 1107 5l1101-3z" fill="#007acc" transform="matrix(.1 0 0 -.1 0 630)"/></svg>